# xmcd
#
# Track frame offsets:
#	150
#	13683
#	27581
#
# Disc length: 556 seconds
#
# Revision: 0
# Processed by: cddbd v1.5.2PL0 Copyright (c) Steve Scherf et al.
# Submitted via: audiograbber 1.83.01
#
DISCID=1d022a03
DTITLE=Rolf Berger - Schau mir in die Augen
DYEAR=1900
DGENRE=Volksmusik
TTITLE0=Schau mir in die Augen
TTITLE1=Hallo Mary
TTITLE2=Kleine Annabell
EXTD=
EXTT0=
EXTT1=
EXTT2=
PLAYORDER=
